<svg width="25" height="25" viewBox="0 0 25 25" fill="none" xmlns="http://www.w3.org/2000/svg">
<path d="M20.1762 9.13135H11.1762C10.0716 9.13135 9.17621 10.0268 9.17621 11.1313V20.1313C9.17621 21.2359 10.0716 22.1313 11.1762 22.1313H20.1762C21.2808 22.1313 22.1762 21.2359 22.1762 20.1313V11.1313C22.1762 10.0268 21.2808 9.13135 20.1762 9.13135Z" stroke="black" stroke-width="2" stroke-linecap="round" stroke-linejoin="round"/>
<path d="M5.17621 15.1313H4.17621C3.64578 15.1313 3.13707 14.9206 2.76199 14.5456C2.38692 14.1705 2.17621 13.6618 2.17621 13.1313V4.13135C2.17621 3.60091 2.38692 3.09221 2.76199 2.71713C3.13707 2.34206 3.64578 2.13135 4.17621 2.13135H13.1762C13.7066 2.13135 14.2153 2.34206 14.5904 2.71713C14.9655 3.09221 15.1762 3.60091 15.1762 4.13135V5.13135" stroke="black" stroke-width="2" stroke-linecap="round" stroke-linejoin="round"/>
</svg>
